<svg version="1.1" xmlns="http://www.w3.org/2000/svg" xmlns:xlink="http://www.w3.org/1999/xlink" xmlns:a="http://ns.adobe.com/AdobeSVGViewerExtensions/3.0/" x="0px" y="0px" viewBox="0 0 22.8 18.5" enable-background="new 0 0 22.8 18.5" xml:space="preserve">
  <defs></defs>

  <path fill="#000000" d="M11.4,6.4c-0.7,0-1.3,0.6-1.3,1.3s0.6,1.3,1.3,1.3c0.7,0,1.3-0.6,1.3-1.3S12.1,6.4,11.4,6.4z M11.4,8.6 c-0.5,0-0.8-0.4-0.8-0.8c0-0.5,0.4-0.8,0.8-0.8c0.5,0,0.8,0.4,0.8,0.8C12.2,8.2,11.8,8.6,11.4,8.6z"/>

  <path fill="#000000" d="M0.2,10.5h7.9c0.1,0,0.2-0.1,0.2-0.2V8.4h0.2v1.9c0,0,0,0,0,0c0,0,0,0.1,0,0.1l0.7,1.4v0.7 c0,0.1,0.1,0.2,0.2,0.2h0.6l0.6,0.8c-0.4,0.2-0.7,0.6-0.7,1.1c0,0.5,0.3,1,0.8,1.2v1.4h-0.1h-0.1H7.5c-0.1,0-0.2,0.1-0.2,0.2v0.7 c0,0.1,0.1,0.2,0.2,0.2h3.2h0.1h1.3h3.3c0.1,0,0.2-0.1,0.2-0.2v-0.7c0-0.1-0.1-0.2-0.2-0.2h-3.3H12v-1.4c0.4-0.2,0.7-0.6,0.7-1.1 c0-0.5-0.3-0.9-0.6-1.1l0.5-0.8h0.6c0.1,0,0.2-0.1,0.2-0.2v-0.7l0.7-1.4c0,0,0-0.1,0-0.1c0,0,0,0,0,0V8.4h0.2v1.9 c0,0.1,0.1,0.2,0.2,0.2h7.9c0.1,0,0.2-0.1,0.2-0.2v-5c0-0.1-0.1-0.2-0.2-0.2h-7.9c-0.1,0-0.2,0.1-0.2,0.2v1.2h-0.2v-2c0,0,0,0,0,0 c0,0,0,0,0-0.1c0,0,0-0.1,0-0.1c0,0,0,0,0,0L12.7,3V2.3V2c0-0.6-0.5-1.2-1.1-1.3V0.2c0-0.1-0.1-0.2-0.2-0.2c-0.1,0-0.2,0.1-0.2,0.2 v0.5c-0.6,0.1-1.1,0.6-1.1,1.3v0.3V3L8.7,4.3l0,0c0,0,0,0.1,0,0.1c0,0,0,0.1,0,0.1v2H8.4V5.3C8.4,5.1,8.3,5,8.2,5H0.2 C0.1,5,0,5.1,0,5.3v5C0,10.4,0.1,10.5,0.2,10.5z M14.9,5.5h7.4v1h-7.4V5.5z M14.9,7h7.4v1.6h-7.4V7z M14.9,9.1h7.4V10h-7.4V9.1z M14.2,7h0.2v0.9h-0.2V7z M11.1,13.9v0.5h-0.5C10.7,14.1,10.9,14,11.1,13.9z M11.4,13.3c-0.1,0-0.1,0-0.2,0l-0.4-0.6H12l-0.4,0.7 C11.5,13.4,11.5,13.3,11.4,13.3z M11.5,16v1.3h-0.2V16c0,0,0,0,0.1,0C11.4,16,11.5,16,11.5,16z M10.6,14.9h0.5v0.5 C10.9,15.3,10.7,15.2,10.6,14.9z M10.1,18H7.7v-0.2h2.4c0,0,0,0.1,0,0.1C10.1,17.9,10.1,18,10.1,18z M12.7,17.7h2.4V18h-2.4 c0,0,0-0.1,0-0.1C12.7,17.8,12.7,17.8,12.7,17.7z M12.1,17.7c0.1,0,0.1,0.1,0.1,0.1c0,0.1-0.1,0.1-0.1,0.1h-1.3h-0.1 c-0.1,0-0.1-0.1-0.1-0.1c0-0.1,0.1-0.1,0.1-0.1h0.1h0.3h0.7H12.1z M11.6,15.4v-0.5h0.5C12.1,15.2,11.9,15.3,11.6,15.4z M12.2,14.4 h-0.5v-0.5C11.9,14,12.1,14.1,12.2,14.4z M13,12.2H9.9V12H13V12.2z M13,11.5H9.8l-0.5-1h4.2L13,11.5z M10.6,2c0-0.5,0.4-0.8,0.8-0.8 c0.5,0,0.8,0.4,0.8,0.8v0.1L10.6,2L10.6,2z M10.6,2.6h1.7v0.2h-1.7V2.6z M10.4,3.3h2l1,0.9H9.5L10.4,3.3z M9.1,4.8h4.5V5H9.1V4.8z M9.1,5.5h4.5V10H9.1V5.5z M8.4,7h0.2v0.9H8.4V7z M0.5,5.5h7.4v1H0.5V5.5z M0.5,7h7.4v1.6H0.5V7z M0.5,9.1h7.4V10H0.5V9.1z"/>

  <path fill="#000000" d="M11.4,7.6c0.1,0,0.2-0.1,0.2-0.2c0-0.1-0.1-0.2-0.2-0.2c-0.3,0-0.6,0.3-0.6,0.6c0,0.3,0.3,0.6,0.6,0.6 c0.1,0,0.2-0.1,0.2-0.2s-0.1-0.2-0.2-0.2c-0.1,0-0.1,0-0.1-0.1C11.3,7.7,11.3,7.6,11.4,7.6z"/>
</svg>
